<svg width="120" height="40" viewBox="0 0 120 40" xmlns="http://www.w3.org/2000/svg">
  <!-- Background circle for the icon -->
  <circle cx="20" cy="20" r="16" fill="#3A86FF" opacity="0.1"/>
  
  <!-- Greek-inspired building icon -->
  <g transform="translate(6, 8)">
    <!-- Building base -->
    <rect x="3" y="16" width="20" height="10" fill="#3A86FF" rx="1"/>
    
    <!-- Greek columns -->
    <rect x="5" y="13" width="1.5" height="6" fill="#3A86FF"/>
    <rect x="9" y="13" width="1.5" height="6" fill="#3A86FF"/>
    <rect x="13" y="13" width="1.5" height="6" fill="#3A86FF"/>
    <rect x="17" y="13" width="1.5" height="6" fill="#3A86FF"/>
    <rect x="21" y="13" width="1.5" height="6" fill="#3A86FF"/>
    
    <!-- Roof/pediment -->
    <polygon points="3,13 13,5 23,13" fill="#FF006E"/>
    
    <!-- Door -->
    <rect x="11" y="19" width="4" height="7" fill="white" rx="0.5"/>
    
    <!-- Windows -->
    <rect x="6" y="18" width="3" height="3" fill="white" rx="0.3"/>
    <rect x="17" y="18" width="3" height="3" fill="white" rx="0.3"/>
    
    <!-- Greek key pattern decoration -->
    <rect x="4" y="11" width="18" height="1.5" fill="#FF006E"/>
  </g>
  
  <!-- Text -->
  <g transform="translate(42, 12)">
    <!-- "Maria" text -->
    <text x="0" y="12" font-family="Inter, -apple-system, BlinkMacSystemFont, sans-serif" font-size="14" font-weight="700" fill="#2D3748">Maria</text>
    
    <!-- "Rooms" text -->
    <text x="0" y="26" font-family="Inter, -apple-system, BlinkMacSystemFont, sans-serif" font-size="11" font-weight="500" fill="#3A86FF" letter-spacing="0.3px">ROOMS</text>
  </g>
</svg>
